<svg xmlns="http://www.w3.org/2000/svg" version="1.1" xmlns:xlink="http://www.w3.org/1999/xlink" xmlns:svgjs="http://svgjs.com/svgjs" width="1440" height="560" preserveAspectRatio="none" viewBox="0 0 1440 560"><g mask="url(&quot;#SvgjsMask1056&quot;)" fill="none"><path d="M1042.73 189.39a34.06 34.06 0 1 0 60.3 31.69z" fill="rgba(177, 53, 231, 1)"></path><path d="M158.04 270.15a52.05 52.05 0 1 0-85.31-59.66z" stroke="rgba(0, 74, 173, 1)"></path><path d="M1274.93 415.43a25.37 25.37 0 1 0 49.3-12.02z" fill="rgba(177, 53, 231, 1)"></path><path d="M1163.38 291.48L1179.72 291.48L1179.72 339.53L1163.38 339.53z" fill="rgba(177, 53, 231, 1)"></path><path d="M1277.52 171.45L1309.33 171.45L1309.33 203.26L1277.52 203.26z" stroke="rgba(177, 53, 231, 1)"></path><path d="M532.71 498.56L547.79 498.56L547.79 513.64L532.71 513.64z" stroke="rgba(0, 74, 173, 1)"></path><path d="M946.8 128.39L996.57 128.39L996.57 137.73L946.8 137.73z" stroke="rgba(0, 74, 173, 1)"></path><path d="M995.43 187.3L1004.75 187.3L1004.75 196.62L995.43 196.62z" fill="rgba(177, 53, 231, 1)"></path><path d="M262.89 376.19a41.18 41.18 0 1 0-76.12-31.43z" fill="rgba(177, 53, 231, 1)"></path><path d="M1159.48 448.87L1189.47 448.87L1189.47 478.86L1159.48 478.86z" fill="rgba(0, 74, 173, 1)"></path><path d="M1152.83 343.11 a37.43 37.43 0 1 0 74.86 0 a37.43 37.43 0 1 0 -74.86 0z" fill="rgba(177, 53, 231, 1)"></path><path d="M1334.43 61.83L1379.84 61.83L1379.84 107.24L1334.43 107.24z" stroke="rgba(177, 53, 231, 1)"></path><path d="M1353.51 192.12a44.14 44.14 0 1 0-67.97 56.34z" fill="rgba(177, 53, 231, 1)"></path><path d="M1300.95 50.44L1327.84 50.44L1327.84 100.96L1300.95 100.96z" fill="rgba(177, 53, 231, 1)"></path><path d="M1341.02 551.24L1378.41 551.24L1378.41 588.63L1341.02 588.63z" fill="rgba(177, 53, 231, 1)"></path><path d="M1007.43 503.33 a35.09 35.09 0 1 0 70.18 0 a35.09 35.09 0 1 0 -70.18 0z" stroke="rgba(0, 74, 173, 1)"></path><path d="M413.99 163.12a25.97 25.97 0 1 0 3.96 51.79z" fill="rgba(0, 74, 173, 1)"></path><path d="M-31.07 78.42 a48.97 48.97 0 1 0 97.94 0 a48.97 48.97 0 1 0 -97.94 0z" fill="rgba(0, 74, 173, 1)"></path><path d="M1328.9 224.87a54.99 54.99 0 1 0-106.82-26.16z" fill="rgba(0, 74, 173, 1)"></path><path d="M1135.54 408.53L1162.32 408.53L1162.32 435.31L1135.54 435.31z" stroke="rgba(177, 53, 231, 1)"></path><path d="M34.84 95.94a21.17 21.17 0 1 0 35.21-23.51z" fill="rgba(177, 53, 231, 1)"></path><path d="M114.13 522.15L118.25 522.15L118.25 526.27L114.13 526.27z" fill="rgba(177, 53, 231, 1)"></path><path d="M506.06 64.94L506.38 64.94L506.38 106.44L506.06 106.44z" stroke="rgba(0, 74, 173, 1)"></path><path d="M185.16 354.81L211.93 354.81L211.93 381.58L185.16 381.58z" stroke="rgba(0, 74, 173, 1)"></path><path d="M273.53 359.77a10.71 10.71 0 1 0-20.52-6.13z" stroke="rgba(177, 53, 231, 1)"></path><path d="M123.87-5.03a42.81 42.81 0 1 0-35.71 77.82z" fill="rgba(177, 53, 231, 1)"></path><path d="M1187.21 507.21L1239.87 507.21L1239.87 559.87L1187.21 559.87z" fill="rgba(0, 74, 173, 1)"></path><path d="M1405.69 264.14a37.9 37.9 0 1 0 63.22 41.82z" stroke="rgba(177, 53, 231, 1)"></path><path d="M1198.94 354.99L1213.2 354.99L1213.2 369.25L1198.94 369.25z" fill="rgba(177, 53, 231, 1)"></path><path d="M1241.21 511.6L1253.73 511.6L1253.73 524.12L1241.21 524.12z" stroke="rgba(177, 53, 231, 1)"></path><path d="M1231.13 118.67L1270.32 118.67L1270.32 127.63L1231.13 127.63z" fill="rgba(0, 74, 173, 1)"></path><path d="M1081.44 380.83L1121.4 380.83L1121.4 420.79L1081.44 420.79z" fill="rgba(177, 53, 231, 1)"></path><path d="M169.96 428.3L194.57 428.3L194.57 452.91L169.96 452.91z" fill="rgba(177, 53, 231, 1)"></path></g><defs><mask id="SvgjsMask1056"><rect width="1440" height="560" fill="#ffffff"></rect></mask></defs></svg>