<svg width="1424" height="560" viewBox="0 0 1424 560" fill="none" xmlns="http://www.w3.org/2000/svg">
<g clip-path="url(#clip0_3_334)">
<path d="M-607.007 205C-511.01 239.6 -319.01 379 -127.007 378C64.9901 377 160.99 198.8 352.993 200C544.99 201.2 640.99 396.4 832.993 384C1024.99 371.6 1191.59 130.8 1312.99 138C1434.39 145.2 1414.6 363.6 1440 420" stroke="#3379C2" stroke-opacity="0.58" stroke-width="2"/>
<path d="M-120.188 388C-24.1899 326.2 167.81 96.6 359.812 79C551.81 61.4 647.81 274.2 839.812 300C1031.81 325.8 1127.81 185.6 1319.81 208C1511.81 230.4 1775.77 430 1799.81 412C1823.85 394 1511.96 176.8 1440 118" stroke="#3379C2" stroke-opacity="0.58" stroke-width="2"/>
<path d="M-415.053 457C-319.05 402.8 -127.05 186.8 64.9471 186C256.95 185.2 352.95 439.8 544.947 453C736.95 466.2 832.95 277.4 1024.95 252C1216.95 226.6 1421.94 347.6 1504.95 326C1587.96 304.4 1452.99 180.4 1440 144" stroke="#3379C2" stroke-opacity="0.58" stroke-width="2"/>
<path d="M-38.5343 206C57.47 243.8 249.47 393.8 441.466 395C633.47 396.2 729.47 202.6 921.466 212C1113.47 221.4 1209.47 462.2 1401.47 442C1593.47 421.8 1873.76 107 1881.47 111C1889.17 115 1528.29 391.8 1440 462" stroke="#3379C2" stroke-opacity="0.58" stroke-width="2"/>
</g>
<defs>
<clipPath id="clip0_3_334">
<rect width="1440" height="560" fill="white"/>
</clipPath>
</defs>
</svg>
